<svg xmlns="http://www.w3.org/2000/svg" viewBox="0 0 91.61 67.63"><defs><style>.cls-1{fill:#ecc220;}.cls-2{fill:#010101;}.cls-3{fill:#fff;}</style></defs><g id="Layer_2" data-name="Layer 2"><g id="Layer_1-2" data-name="Layer 1"><path class="cls-1" d="M27.38,17.67c4.5-7,10.15-12.58,18.12-15.52C60.39-3.35,77.28,2,85.76,14.92c9,13.71,7.52,30.65-3.68,42.47-13.6,14.34-38,13.49-50.6-1.77-.63-.76-1.34-1.44-2-2.16-2.22-5-4.56-10-6.62-15.12-.87-2.17-1.38-4.77-.27-6.91C24.85,27.05,25.28,22.07,27.38,17.67Zm55,13.87-2.59,1.71c-.93-1.3.52-3.62-2.17-4.94,0,3.8-.54,7,.29,10.33,2.26-.55,1.34-3.84,2.68-3.32,4.74,1.82,1.33-2.39,2.5-3.06L87,28.72C84,28.88,83,30,82.4,31.54ZM27.86,28.49c.42,3.75-.6,6.89.79,10.1,1.82-1.08.31-3.16,2.07-4.23,2.27,4.54,4.46,2.46,6.36-.5,1.14,1.61-.52,3.88,2.13,5.07.13-3.66.84-6.93-.47-10.36-2.64,1.54-2.69,4.56-4.81,6C31.34,33.53,31.52,29.9,27.86,28.49Zm27.81,10C54.23,35,54.15,30,51,29.28c-2.52-.59-2.94,4.55-4.44,7-.33.53-1.19,1.25-.19,2.44C49.18,35.74,52.27,35.72,55.67,38.44Zm15,.27c-2.12-2.31-.41-3.83,0-5.6.68-3.4-1.71-4.14-4.4-4.48S62,28.94,62.46,32c.32,2.14-.46,4.43,1,7.58C65.54,31.4,67.62,38.39,70.63,38.71Zm14.51-1.38-.6.57c.22.21.4.52.66.6.52.17.92-.06.74-.65C85.87,37.62,85.43,37.5,85.14,37.33Z"/><path class="cls-2" d="M27.38,17.67c-2.1,4.4-2.53,9.38-4.8,13.76-1.11,2.14-.6,4.74.27,6.91,2.06,5.1,4.4,10.08,6.62,15.12h-11c1.74-3.15-.11-10.5-3.05-12.38a1.85,1.85,0,0,0-1.35-.33c-3,1-4.87,9.62-2.45,12.53H.1A120.83,120.83,0,0,0,11,38.78c.62-1,2.14-1.54,1-3.33C8.24,29.8,5.79,23.29,0,18.13H15.53c-4.88,4.14.22,7,1.39,10.23.55,1.55,2,.61,2.65-.35C21.63,25,25,22,20.23,18.22,22.81,17.15,25.13,17.81,27.38,17.67Z"/><path class="cls-3" d="M27.86,28.49c3.66,1.41,3.48,5,6.07,6.09,2.12-1.45,2.17-4.47,4.81-6,1.31,3.43.6,6.7.47,10.36-2.65-1.19-1-3.46-2.13-5.07-1.9,3-4.09,5-6.36.5-1.76,1.07-.25,3.15-2.07,4.23C27.26,35.38,28.28,32.24,27.86,28.49Z"/><path class="cls-3" d="M55.67,38.44c-3.4-2.72-6.49-2.7-9.33.33-1-1.19-.14-1.91.19-2.44,1.5-2.5,1.92-7.64,4.44-7C54.15,30,54.23,35,55.67,38.44Z"/><path class="cls-3" d="M70.63,38.71c-3-.32-5.09-7.31-7.19.87-1.44-3.15-.66-5.44-1-7.58-.45-3.06,1.11-3.7,3.72-3.37s5.08,1.08,4.4,4.48C70.22,34.88,68.51,36.4,70.63,38.71Zm-4.25-8.23c-1.33-.13-2,.43-2,1.92,0,1.27.22,2.31,1.84,2.09,1.36-.19,2.68-.78,2.69-2.28C68.92,30.89,67.69,30.49,66.38,30.48Z"/><path class="cls-3" d="M83.11,32.26c-1.17.67,2.24,4.88-2.5,3.06-1.34-.52-.42,2.77-2.68,3.32-.83-3.33-.3-6.53-.29-10.33,2.69,1.32,1.24,3.64,2.17,4.94l2.59-1.71Z"/><path class="cls-3" d="M82.4,31.54C83,30,84,28.88,87,28.72l-3.88,3.54Z"/><path class="cls-3" d="M85.14,37.33c.29.17.73.29.8.52.18.59-.22.82-.74.65-.26-.08-.44-.39-.66-.6Z"/><path class="cls-1" d="M66.38,30.48c1.31,0,2.54.41,2.53,1.73,0,1.5-1.33,2.09-2.69,2.28-1.62.22-1.82-.82-1.84-2.09C64.35,30.91,65.05,30.35,66.38,30.48Z"/></g></g></svg>