<svg xmlns="http://www.w3.org/2000/svg" viewBox="0 0 126.09 88.45"><defs><style>.cls-1{fill:#ecc220;}.cls-2{fill:#232222;}.cls-3{fill:#fff;}</style></defs><g id="Layer_2" data-name="Layer 2"><g id="Layer_1-2" data-name="Layer 1"><path class="cls-1" d="M73.9,65.92c6.93,5.26,6.77,5.22.61,10.88C54.39,95.28,23.17,90.84,8.36,70-11,42.71,5.38,6.25,36.63.76,53-2.11,66.52,3.27,77.67,15.24c.88.94,3,2.52.48,3.11C76.14,18.83,75.53,24,72,20A38.25,38.25,0,0,0,53.33,8.58C35.05,3.3,12.72,16.49,8.7,35.05c-2.71,12.57-.54,24.28,8,33.73a36.88,36.88,0,0,0,48.91,5.53C68.83,72,72,69.58,73.9,65.92Z"/><path class="cls-1" d="M97.19,24c12-.53,10.19-.89,13.92,7.17,1.12-2.4,1.65-5.7,3.53-6.94s5.13-.54,7.77-.48c3,.08,4.79,1.89,2.91,4.45-8.24,11.27-8,22.38-.32,33.72,1.4,2.08.76,3.36-2,3.38-4.26,0-8.48.26-9.64-5.34-.17-.85-.56-2.17-1.71-2.21-1.41,0-1.46,1.42-2,2.38-1.06,2-.24,5.45-3.93,5.36-3-.07-6.58,1.29-8.78-1.85-1.93-2.77,1-4.86,1.84-7.14a90,90,0,0,1,4.53-9.26,10.18,10.18,0,0,0-.09-9.85C101.14,33.17,99.35,28.8,97.19,24Z"/><path class="cls-2" d="M65.56,34.79c-3.62-.47-6.75,1-9.3-2.63C54.73,30,51,32,50.72,34.9c-.12,1.32,0,2.66,0,4.43C56,37.48,61.13,37.61,64,42.72s2.71,11.33.26,16.67c-2.37,5.15-7.5,6.17-12.7,5.24a9.15,9.15,0,0,1-8-8.15,75.43,75.43,0,0,1-.11-23.71c1-6.45,4.58-9.08,10.78-9.07S63.53,26.35,65,32.87C65.14,33.34,65.29,33.81,65.56,34.79ZM57.64,51.21c.4-3.28.14-6.63-4.63-5.4-4.27,1.11-1.75,5-2.25,7.6A3.33,3.33,0,0,0,54,57.52C57.86,57.47,57.86,54.34,57.64,51.21Z"/><path class="cls-2" d="M69.69,44.18a70.58,70.58,0,0,0,0-8,10.86,10.86,0,0,1,9.69-12.49c6.92-.8,11.61,2.33,12.75,9.86,1.2,8,1.44,16.17-.48,24.13-1.26,5.22-6.45,7.74-13.1,7a10.36,10.36,0,0,1-8.8-10.05C69.62,51.16,69.69,47.67,69.69,44.18Zm15,0c0-3-.15-6,0-9,.17-2.6-1.4-3.72-3.38-4.08a3.34,3.34,0,0,0-4.18,2.92,85.1,85.1,0,0,0-.06,20.3c.19,1.82,1.39,3.88,4,3.31a4,4,0,0,0,3.54-4.53C84.62,50.16,84.68,47.17,84.68,44.18Z"/><path class="cls-2" d="M31.94,39.14c6.6,4.4,9.16,14.2,5.51,21.11-1.88,3.56-7.83,5.7-13.25,4.37-4.44-1.09-6.55-4.56-7.44-8.77-.21-1-.52-2.8,1.18-2.72,2.26.12,5.11-1.49,6.68,1.48.87,1.64,1.47,3.56,3.85,2.8s2.15-2.87,2.28-4.91c.26-4.24.14-7.68-5.78-6.89-2.8.37-1.85-2.26-1.77-3.64.22-3.7,3.3-6.23,4.88-10.26-2.4,0-4.31,0-6.21,0-2.36.05-4.29.42-4.34-3.35-.05-3.93,1.85-3.78,4.52-3.7,3.82.11,7.65,0,11.48,0,4.36,0,5.66,2.16,3.53,6.07C35.5,33.64,33.66,36.36,31.94,39.14Z"/><path class="cls-3" d="M57.64,51.21c.22,3.13.22,6.26-3.67,6.31a3.33,3.33,0,0,1-3.21-4.11c.5-2.61-2-6.49,2.25-7.6C57.78,44.58,58,47.93,57.64,51.21Z"/><path class="cls-3" d="M84.68,44.18c0,3-.06,6,0,9a4,4,0,0,1-3.54,4.53c-2.66.57-3.86-1.49-4-3.31a85.1,85.1,0,0,1,.06-20.3,3.34,3.34,0,0,1,4.18-2.92c2,.36,3.55,1.48,3.38,4.08C84.53,38.19,84.68,41.19,84.68,44.18Z"/></g></g></svg>