<svg xmlns="http://www.w3.org/2000/svg" xmlns:xlink="http://www.w3.org/1999/xlink" width="132" height="34.725" viewBox="0 0 132 34.725">
  <defs>
    <linearGradient id="linear-gradient" y1="0.5" x2="1" y2="0.5" gradientUnits="objectBoundingBox">
      <stop offset="0" stop-color="#f93347"/>
      <stop offset="1" stop-color="#ffa727"/>
    </linearGradient>
  </defs>
  <g id="logo" transform="translate(-123.42 -463.484)">
    <g id="Group_10621" data-name="Group 10621" transform="translate(151.6 463.763)">
      <path id="Path_4562" data-name="Path 4562" d="M227.457,475.29q2.6,2.874,2.6,8.074v14.688h-6.386V484.094a6.6,6.6,0,0,0-1.551-4.676,5.515,5.515,0,0,0-4.242-1.665,5.673,5.673,0,0,0-4.379,1.779,7.266,7.266,0,0,0-1.642,5.109v13.411h-6.432V464.3h6.432v13.548a8.05,8.05,0,0,1,3.307-3.991,9.829,9.829,0,0,1,5.314-1.436A8.947,8.947,0,0,1,227.457,475.29Z" transform="translate(-205.425 -464.297)" fill="#f93347"/>
      <path id="Path_4563" data-name="Path 4563" d="M306.5,489.564a8.2,8.2,0,0,1,3.238,4.059v-5.246h6.386v25.271h-6.386v-5.291a8.32,8.32,0,0,1-3.238,4.082,9.6,9.6,0,0,1-5.474,1.528,10.85,10.85,0,0,1-5.747-1.551,10.475,10.475,0,0,1-3.992-4.493,17.342,17.342,0,0,1,0-13.821,10.478,10.478,0,0,1,3.992-4.493,10.857,10.857,0,0,1,5.747-1.551A9.713,9.713,0,0,1,306.5,489.564Zm-8.3,6.067a7.593,7.593,0,0,0-1.825,5.382,7.509,7.509,0,0,0,1.825,5.36,6.913,6.913,0,0,0,9.648-.046,8.47,8.47,0,0,0,0-10.674,6.364,6.364,0,0,0-4.812-1.985A6.292,6.292,0,0,0,298.2,495.63Z" transform="translate(-260.837 -479.893)" fill="#f93347"/>
      <path id="Path_4564" data-name="Path 4564" d="M393.468,489.317a9.937,9.937,0,0,1,5.2-1.391v6.888H396.8q-7.071,0-7.07,6.568v12.179H383.3V488.291h6.432v4.835A10.571,10.571,0,0,1,393.468,489.317Z" transform="translate(-322.172 -479.806)" fill="#f93347"/>
      <path id="Path_4565" data-name="Path 4565" d="M459.481,502.244h-18.52a6.967,6.967,0,0,0,1.825,4.972,5.869,5.869,0,0,0,4.2,1.6,6.085,6.085,0,0,0,3.717-1.1,4.849,4.849,0,0,0,1.893-2.965h6.8a10.865,10.865,0,0,1-2.144,4.744,11.2,11.2,0,0,1-4.219,3.285,14.456,14.456,0,0,1-12.293-.388,11.06,11.06,0,0,1-4.47-4.493,15.7,15.7,0,0,1,0-13.8,10.884,10.884,0,0,1,4.47-4.493,13.617,13.617,0,0,1,6.569-1.551,13.318,13.318,0,0,1,6.546,1.551,10.936,10.936,0,0,1,4.333,4.265,12.382,12.382,0,0,1,1.529,6.181A12.226,12.226,0,0,1,459.481,502.244Zm-7.869-7.526a6.176,6.176,0,0,0-4.311-1.6,6.322,6.322,0,0,0-4.379,1.6,6.539,6.539,0,0,0-1.961,4.7h12.271A5.674,5.674,0,0,0,451.612,494.718Z" transform="translate(-355.89 -479.893)" fill="#f93347"/>
    </g>
    <g id="Group_10628" data-name="Group 10628" transform="translate(123.42 463.484)">
      <g id="Group_10623" data-name="Group 10623" transform="translate(0 0)" opacity="0.4" style="mix-blend-mode: multiply;isolation: isolate">
        <g id="Group_10622" data-name="Group 10622" transform="translate(1.51 2.151)">
          <line id="Line_21" data-name="Line 21" x1="3.296" y2="3.186" transform="translate(7.451 0.264)" fill="#231f20"/>
          <line id="Line_22" data-name="Line 22" x1="3.296" y2="3.186" transform="translate(0.003 6.521)" fill="#231f20"/>
          <line id="Line_23" data-name="Line 23" x1="3.296" y2="3.186" transform="translate(10.807 26.731)" fill="#231f20"/>
          <line id="Line_24" data-name="Line 24" x1="2.504" y1="2.111" transform="translate(4.641 1.108)" fill="#231f20"/>
          <line id="Line_25" data-name="Line 25" x1="2.504" y1="2.111" transform="translate(15.46)" fill="#231f20"/>
          <line id="Line_26" data-name="Line 26" x1="2.504" y1="2.111" transform="translate(8.136 14.157)" fill="#231f20"/>
          <line id="Line_27" data-name="Line 27" x1="2.504" y1="2.111" transform="translate(0.798 3.511)" fill="#231f20"/>
          <line id="Line_28" data-name="Line 28" x1="2.504" y1="2.111" transform="translate(15.46 19.182)" fill="#231f20"/>
          <line id="Line_29" data-name="Line 29" x1="2.504" y1="2.111" transform="translate(13.973 27.269)" fill="#231f20"/>
          <line id="Line_30" data-name="Line 30" x1="2.504" y1="2.111" transform="translate(0 23.811)" fill="#231f20"/>
        </g>
        <path id="Path_4566" data-name="Path 4566" d="M125.94,489.528a.84.84,0,1,1-.84-.84A.84.84,0,0,1,125.94,489.528ZM140.222,464.6a.84.84,0,1,0,.84.84A.84.84,0,0,0,140.222,464.6Zm-1.4,27.164a.84.84,0,1,0,.84.84A.84.84,0,0,0,138.822,491.768Zm-1.96-14a.84.84,0,1,0,.84.84A.84.84,0,0,0,136.862,477.766Zm3.641,6.161a.84.84,0,1,0,.84.84A.84.84,0,0,0,140.5,483.927Zm-8.121-15.682a.84.84,0,1,0,.84.84A.84.84,0,0,0,132.381,468.245Zm-6.721,0a.84.84,0,1,0,.84.84A.84.84,0,0,0,125.66,468.245Zm15.542,25.2a1.54,1.54,0,1,0,1.541,1.54A1.54,1.54,0,0,0,141.2,493.448Zm.56-12.882a1.54,1.54,0,1,0,1.54,1.54A1.54,1.54,0,0,0,141.762,480.567Zm-16.8-6.161a1.54,1.54,0,1,0,1.54,1.54A1.54,1.54,0,0,0,124.96,474.406Zm4.761-9.242a1.54,1.54,0,1,0,1.54,1.54A1.54,1.54,0,0,0,129.721,465.164Zm6.161,28.284a2.38,2.38,0,1,0,2.38,2.38A2.38,2.38,0,0,0,135.882,493.448Zm.84-13.442a2.38,2.38,0,1,0,2.38,2.38A2.38,2.38,0,0,0,136.722,480.007Zm-7.841-10.642a2.38,2.38,0,1,0,2.38,2.38A2.38,2.38,0,0,0,128.881,469.365Zm7-5.881a2.38,2.38,0,1,0,2.38,2.38A2.381,2.381,0,0,0,135.882,463.484Zm7.281,3.081a3.22,3.22,0,1,0,3.221,3.22A3.22,3.22,0,0,0,143.163,466.565Zm-13.442,22.4a3.781,3.781,0,1,0,3.78,3.78A3.78,3.78,0,0,0,129.721,488.968Zm13.722-3.081a3.5,3.5,0,1,0,3.5,3.5A3.5,3.5,0,0,0,143.443,485.887Zm-12.882-10.641a3.781,3.781,0,1,0,3.781,3.781A3.781,3.781,0,0,0,130.561,475.246Z" transform="translate(-123.42 -463.484)" fill="#231f20" opacity="0.21"/>
      </g>
      <g id="Group_10625" data-name="Group 10625" transform="translate(0.445 0.658)">
        <g id="Group_10624" data-name="Group 10624" transform="translate(1.453 2.069)">
          <line id="Line_31" data-name="Line 31" x1="3.172" y2="3.065" transform="translate(7.169 0.254)" fill="none" stroke="#fff" stroke-miterlimit="10" stroke-width="1"/>
          <line id="Line_32" data-name="Line 32" x1="3.172" y2="3.065" transform="translate(0.003 6.274)" fill="none" stroke="#fff" stroke-miterlimit="10" stroke-width="1"/>
          <line id="Line_33" data-name="Line 33" x1="3.172" y2="3.065" transform="translate(10.398 25.719)" fill="none" stroke="#fff" stroke-miterlimit="10" stroke-width="1"/>
          <line id="Line_34" data-name="Line 34" x1="2.41" y1="2.031" transform="translate(4.465 1.067)" fill="none" stroke="#fff" stroke-miterlimit="10" stroke-width="1"/>
          <line id="Line_35" data-name="Line 35" x1="2.41" y1="2.031" transform="translate(14.875)" fill="none" stroke="#fff" stroke-miterlimit="10" stroke-width="1"/>
          <line id="Line_36" data-name="Line 36" x1="2.41" y1="2.031" transform="translate(7.828 13.621)" fill="none" stroke="#fff" stroke-miterlimit="10" stroke-width="1"/>
          <line id="Line_37" data-name="Line 37" x1="2.41" y1="2.031" transform="translate(0.768 3.378)" fill="none" stroke="#fff" stroke-miterlimit="10" stroke-width="1"/>
          <line id="Line_38" data-name="Line 38" x1="2.41" y1="2.031" transform="translate(14.875 18.456)" fill="none" stroke="#fff" stroke-miterlimit="10" stroke-width="1"/>
          <line id="Line_39" data-name="Line 39" x1="2.41" y1="2.031" transform="translate(13.444 26.236)" fill="none" stroke="#fff" stroke-miterlimit="10" stroke-width="1"/>
          <line id="Line_40" data-name="Line 40" x1="2.41" y1="2.031" transform="translate(0 22.909)" fill="none" stroke="#fff" stroke-miterlimit="10" stroke-width="1"/>
        </g>
        <path id="Path_4567" data-name="Path 4567" d="M127.141,490.455a.808.808,0,1,1-.808-.808A.808.808,0,0,1,127.141,490.455Zm13.741-23.98a.808.808,0,1,0,.808.808A.808.808,0,0,0,140.882,466.476Zm-1.347,26.135a.808.808,0,1,0,.809.809A.808.808,0,0,0,139.535,492.611Zm-1.886-13.472a.808.808,0,1,0,.808.808A.808.808,0,0,0,137.649,479.139Zm3.5,5.928a.808.808,0,1,0,.808.808A.808.808,0,0,0,141.152,485.067Zm-7.814-15.089a.808.808,0,1,0,.808.808A.808.808,0,0,0,133.338,469.978Zm-6.467,0a.808.808,0,1,0,.809.808A.808.808,0,0,0,126.871,469.978Zm14.954,24.249a1.482,1.482,0,1,0,1.482,1.482A1.482,1.482,0,0,0,141.825,494.228Zm.539-12.394a1.482,1.482,0,1,0,1.482,1.482A1.482,1.482,0,0,0,142.364,481.834ZM126.2,475.906a1.482,1.482,0,1,0,1.482,1.482A1.482,1.482,0,0,0,126.2,475.906Zm4.58-8.891a1.482,1.482,0,1,0,1.482,1.482A1.482,1.482,0,0,0,130.778,467.014Zm5.928,27.213a2.29,2.29,0,1,0,2.29,2.29A2.29,2.29,0,0,0,136.706,494.228Zm.808-12.933a2.29,2.29,0,1,0,2.29,2.29A2.29,2.29,0,0,0,137.514,481.295Zm-7.544-10.239a2.29,2.29,0,1,0,2.29,2.29A2.29,2.29,0,0,0,129.97,471.056Zm6.736-5.658a2.29,2.29,0,1,0,2.29,2.29A2.29,2.29,0,0,0,136.706,465.4Zm7.005,2.964a3.1,3.1,0,1,0,3.1,3.1A3.1,3.1,0,0,0,143.711,468.362Zm-12.933,21.555a3.637,3.637,0,1,0,3.637,3.637A3.637,3.637,0,0,0,130.778,489.917Zm13.2-2.964a3.368,3.368,0,1,0,3.368,3.368A3.368,3.368,0,0,0,143.98,486.953Zm-12.394-10.238a3.637,3.637,0,1,0,3.637,3.637A3.637,3.637,0,0,0,131.587,476.714Z" transform="translate(-124.716 -465.398)" fill="#fff"/>
      </g>
      <g id="Group_10627" data-name="Group 10627" transform="translate(0.445 0.658)">
        <g id="Group_10626" data-name="Group 10626" transform="translate(1.453 2.069)">
          <line id="Line_41" data-name="Line 41" x1="3.172" y2="3.065" transform="translate(7.169 0.254)" fill="none" stroke="#707070" stroke-miterlimit="10" stroke-width="1"/>
          <line id="Line_42" data-name="Line 42" x1="3.172" y2="3.065" transform="translate(0.003 6.274)" fill="none" stroke="#707070" stroke-miterlimit="10" stroke-width="1"/>
          <line id="Line_43" data-name="Line 43" x1="3.172" y2="3.065" transform="translate(10.398 25.719)" fill="none" stroke="#707070" stroke-miterlimit="10" stroke-width="1"/>
          <line id="Line_44" data-name="Line 44" x1="2.41" y1="2.031" transform="translate(4.465 1.067)" fill="none" stroke="#707070" stroke-miterlimit="10" stroke-width="1"/>
          <line id="Line_45" data-name="Line 45" x1="2.41" y1="2.031" transform="translate(14.875)" fill="none" stroke="#707070" stroke-miterlimit="10" stroke-width="1"/>
          <line id="Line_46" data-name="Line 46" x1="2.41" y1="2.031" transform="translate(7.828 13.621)" fill="none" stroke="#707070" stroke-miterlimit="10" stroke-width="1"/>
          <line id="Line_47" data-name="Line 47" x1="2.41" y1="2.031" transform="translate(0.768 3.378)" fill="none" stroke="#707070" stroke-miterlimit="10" stroke-width="1"/>
          <line id="Line_48" data-name="Line 48" x1="2.41" y1="2.031" transform="translate(14.875 18.456)" fill="none" stroke="#707070" stroke-miterlimit="10" stroke-width="1"/>
          <line id="Line_49" data-name="Line 49" x1="2.41" y1="2.031" transform="translate(13.444 26.236)" fill="none" stroke="#707070" stroke-miterlimit="10" stroke-width="1"/>
          <line id="Line_50" data-name="Line 50" x1="2.41" y1="2.031" transform="translate(0 22.909)" fill="none" stroke="#707070" stroke-miterlimit="10" stroke-width="1"/>
        </g>
        <path id="Path_4568" data-name="Path 4568" d="M127.141,490.455a.808.808,0,1,1-.808-.808A.808.808,0,0,1,127.141,490.455Zm13.741-23.98a.808.808,0,1,0,.808.808A.808.808,0,0,0,140.882,466.476Zm-1.347,26.135a.808.808,0,1,0,.809.809A.808.808,0,0,0,139.535,492.611Zm-1.886-13.472a.808.808,0,1,0,.808.808A.808.808,0,0,0,137.649,479.139Zm3.5,5.928a.808.808,0,1,0,.808.808A.808.808,0,0,0,141.152,485.067Zm-7.814-15.089a.808.808,0,1,0,.808.808A.808.808,0,0,0,133.338,469.978Zm-6.467,0a.808.808,0,1,0,.809.808A.808.808,0,0,0,126.871,469.978Zm14.954,24.249a1.482,1.482,0,1,0,1.482,1.482A1.482,1.482,0,0,0,141.825,494.228Zm.539-12.394a1.482,1.482,0,1,0,1.482,1.482A1.482,1.482,0,0,0,142.364,481.834ZM126.2,475.906a1.482,1.482,0,1,0,1.482,1.482A1.482,1.482,0,0,0,126.2,475.906Zm4.58-8.891a1.482,1.482,0,1,0,1.482,1.482A1.482,1.482,0,0,0,130.778,467.014Zm5.928,27.213a2.29,2.29,0,1,0,2.29,2.29A2.29,2.29,0,0,0,136.706,494.228Zm.808-12.933a2.29,2.29,0,1,0,2.29,2.29A2.29,2.29,0,0,0,137.514,481.295Zm-7.544-10.239a2.29,2.29,0,1,0,2.29,2.29A2.29,2.29,0,0,0,129.97,471.056Zm6.736-5.658a2.29,2.29,0,1,0,2.29,2.29A2.29,2.29,0,0,0,136.706,465.4Zm7.005,2.964a3.1,3.1,0,1,0,3.1,3.1A3.1,3.1,0,0,0,143.711,468.362Zm-12.933,21.555a3.637,3.637,0,1,0,3.637,3.637A3.637,3.637,0,0,0,130.778,489.917Zm13.2-2.964a3.368,3.368,0,1,0,3.368,3.368A3.368,3.368,0,0,0,143.98,486.953Zm-12.394-10.238a3.637,3.637,0,1,0,3.637,3.637A3.637,3.637,0,0,0,131.587,476.714Z" transform="translate(-124.716 -465.398)" fill="url(#linear-gradient)"/>
      </g>
    </g>
  </g>
</svg>
