<svg xmlns="http://www.w3.org/2000/svg" viewBox="0 0 252.52 279.12"><defs><style>.cls-1{fill:#243746;}.cls-2{fill:#34c3b1;}</style></defs><g id="Layer_2" data-name="Layer 2"><g id="Layer_1-2" data-name="Layer 1"><path class="cls-1" d="M139.85,123.44c.84,2.68,1.55,5.13,2.37,7.54a68.53,68.53,0,0,0,11.12,20.53c2.28,2.92,2.49,3.13-.38,5.41a126,126,0,0,1-12.05,8.47A54.81,54.81,0,0,1,125,171.67a67,67,0,0,1-75.51-33.75,65.61,65.61,0,0,1-7.55-31Q42,54.81,42,2.71c0-.49,0-1,0-1.48,0-.85.43-1.32,1.31-1.19a60.47,60.47,0,0,1,6.86,1.09A30.57,30.57,0,0,1,65,9.88c5.54,5.87,8.71,12.83,8.74,20.93.09,25.13,0,50.26,0,75.39,0,12.32,4.86,22.29,14.94,29.45a33.56,33.56,0,0,0,27.47,5.58A34.24,34.24,0,0,0,139,124.64C139.23,124.3,139.47,124,139.85,123.44Z"/><path class="cls-1" d="M164.49,155.78a66.85,66.85,0,0,1-15.77-23A77.34,77.34,0,0,1,144,114.09c-.42-2.86-.09-5.6-.21-8.39a35.13,35.13,0,0,0-24.83-31.61A35.33,35.33,0,0,0,80,87.55c-.08.11-.18.21-.5.58a16.9,16.9,0,0,1-.23-1.86q0-8.61,0-17.21c0-6.5,0-13,0-19.5A2.45,2.45,0,0,1,80.94,47a66,66,0,0,1,16.5-5,68.34,68.34,0,0,1,39.75,5.33,65.28,65.28,0,0,1,16.64,11.1A66,66,0,0,1,170.57,82a60.14,60.14,0,0,1,4.66,18.72c.32,4.13.36,8.29.89,12.39a31.81,31.81,0,0,0,6.56,15.32,32.83,32.83,0,0,0,16.5,11.88,74.12,74.12,0,0,0,10,2c1,.16,1.41.35,1.4,1.38q0,14.55,0,29.09c0,1.08-.47,1.32-1.46,1.3A67.47,67.47,0,0,1,193.88,172a60.35,60.35,0,0,1-14.42-5.57c-3.64-2-7.1-4.36-11.05-6.81"/><path class="cls-2" d="M175.28,78.78c-1.19-2.25-2.31-4.53-3.57-6.74a70.12,70.12,0,0,0-25.14-25.82A5.18,5.18,0,0,1,143.63,41c.17-13,.07-26,.08-39,0-1.92.2-2.14,2-1.94a33.32,33.32,0,0,1,15.39,5.18A31.87,31.87,0,0,1,173.62,21a33.75,33.75,0,0,1,2,11.6c.07,8.66,0,17.31,0,26V78.69Z"/><circle class="cls-2" cx="108.05" cy="107.59" r="23.13"/><path class="cls-2" d="M22.73,216.56a22.92,22.92,0,0,0-13,4.05V205.92a4.91,4.91,0,0,0-4.87-5,5,5,0,0,0-4.87,5V239a22.69,22.69,0,1,0,22.73-22.46ZM35.62,239a13.12,13.12,0,1,1-26.24,0A12.85,12.85,0,0,1,22.28,226C29.89,226,35.62,231.57,35.62,239Z"/><path class="cls-1" d="M54.47,213.77a5.42,5.42,0,0,0,5.42-5.41,5.42,5.42,0,0,0-10.83,0A5.42,5.42,0,0,0,54.47,213.77Z"/><path class="cls-1" d="M54.56,217a4.93,4.93,0,0,0-5,4.88v34.18a5,5,0,0,0,4.87,5,4.92,4.92,0,0,0,4.87-5V221.89A4.78,4.78,0,0,0,54.56,217Z"/><path class="cls-1" d="M108.5,238.84A22.51,22.51,0,1,0,86,261.12a22.89,22.89,0,0,0,11.25-2.91,6,6,0,0,1,.74,3.18,7.13,7.13,0,0,1-7.12,6.76,30.53,30.53,0,0,1-4-.41,37.09,37.09,0,0,0-5.16-.49,22.11,22.11,0,0,0-9.56,2.18,5.13,5.13,0,0,0,2.07,9.69,4.85,4.85,0,0,0,1.91-.4l.14-.06a13.13,13.13,0,0,1,6.07-1.31,35.82,35.82,0,0,1,4.52.43,41,41,0,0,0,5.22.48c8,0,16.06-5.49,16.06-16a16.24,16.24,0,0,0-3.77-10.5A21.71,21.71,0,0,0,108.5,238.84Zm-9.84,0a13,13,0,0,1-3.72,9.38,12.52,12.52,0,0,1-9.07,3.52c-7.22-.09-12.46-5.51-12.46-12.9s5.43-13,12.63-13S98.66,231.44,98.66,238.84Z"/><path class="cls-1" d="M152.9,251.75h-.11c-4.48-.09-7-3.18-7-8.48V205.83a4.88,4.88,0,1,0-9.75,0v39.06c0,10.43,5.56,16.41,15.25,16.41,4.32,0,5.86-2.42,5.86-4.69C157.1,253.79,155.65,252.1,152.9,251.75Z"/><path class="cls-1" d="M179.29,216.56a22.57,22.57,0,0,0-22.55,22.55c0,12.65,9.59,22.55,21.83,22.55a21.59,21.59,0,0,0,13.5-4.4,4.91,4.91,0,0,0,4.8,3.77,4.81,4.81,0,0,0,4.88-5V239.11A22.54,22.54,0,0,0,179.29,216.56Zm13.07,22.55A13.12,13.12,0,1,1,179.29,226,13.09,13.09,0,0,1,192.36,239.11Z"/><path class="cls-2" d="M229.88,216.56a22.92,22.92,0,0,0-13,4.05V205.92a4.91,4.91,0,0,0-4.87-5,5,5,0,0,0-4.87,5V239a22.69,22.69,0,1,0,22.73-22.46ZM242.77,239a13.12,13.12,0,1,1-26.24,0A12.85,12.85,0,0,1,229.43,226C237,226,242.77,231.57,242.77,239Z"/></g></g></svg>